<svg width="20" height="20" viewBox="0 0 20 20" fill="none" xmlns="http://www.w3.org/2000/svg">
<path d="M0.833984 17.5003L10.0007 1.66699L19.1673 17.5003H0.833984ZM10.0007 15.0003C10.2368 15.0003 10.4347 14.9205 10.5944 14.7607C10.7541 14.601 10.834 14.4031 10.834 14.167C10.834 13.9309 10.7541 13.733 10.5944 13.5732C10.4347 13.4135 10.2368 13.3337 10.0007 13.3337C9.76454 13.3337 9.56662 13.4135 9.4069 13.5732C9.24718 13.733 9.16732 13.9309 9.16732 14.167C9.16732 14.4031 9.24718 14.601 9.4069 14.7607C9.56662 14.9205 9.76454 15.0003 10.0007 15.0003ZM9.16732 12.5003H10.834V8.33366H9.16732V12.5003Z" fill="#B27D11"/>
</svg>
